<!DOCTYPE svg PUBLIC "-//W3C//DTD SVG 20010904//EN" "http://www.w3.org/TR/2001/REC-SVG-20010904/DTD/svg10.dtd">
<svg version="1.0" xmlns="http://www.w3.org/2000/svg" width="68px" height="68px" viewBox="0 0 680 680" preserveAspectRatio="xMidYMid meet">
<g id="layer101" fill="#ffffff" stroke="none">
 <path d="M194 651 c-78 -37 -128 -87 -165 -165 -25 -52 -29 -73 -29 -143 0 -53 6 -98 17 -125 24 -61 73 -128 95 -128 25 0 23 11 -17 70 -70 104 -80 200 -32 304 35 75 70 112 145 148 94 46 170 46 264 0 75 -37 110 -72 147 -152 38 -82 36 -165 -7 -252 -37 -75 -73 -110 -149 -145 -76 -35 -136 -39 -210 -14 -75 25 -83 26 -83 6 0 -30 78 -55 170 -55 73 0 93 4 146 29 78 37 128 87 165 165 25 52 29 73 29 146 0 73 -4 94 -29 146 -37 78 -87 128 -165 165 -52 25 -73 29 -146 29 -73 0 -94 -4 -146 -29z"/>
 <path d="M212 528 c2 -7 56 -50 118 -95 63 -44 116 -86 118 -91 1 -5 -42 -42 -97 -80 l-100 -71 -3 117 c-2 96 -6 117 -18 117 -13 0 -15 -24 -18 -142 -2 -137 -2 -143 18 -143 21 0 290 185 290 200 0 5 -61 52 -135 104 -124 88 -183 116 -173 84z"/>
 </g>

</svg>