<!DOCTYPE svg PUBLIC "-//W3C//DTD SVG 20010904//EN" "http://www.w3.org/TR/2001/REC-SVG-20010904/DTD/svg10.dtd">
<svg version="1.0" xmlns="http://www.w3.org/2000/svg" width="114px" height="114px" viewBox="0 0 1140 1140" preserveAspectRatio="xMidYMid meet">
<g id="layer101" fill="#ffffff" stroke="none">
 <path d="M416 1125 c-192 -53 -350 -213 -401 -405 -19 -72 -19 -230 0 -305 30 -114 140 -277 178 -262 27 10 20 35 -27 95 -102 129 -138 290 -101 437 49 194 196 341 390 390 358 91 711 -262 620 -620 -49 -194 -196 -341 -390 -390 -106 -27 -220 -15 -332 35 -49 21 -73 18 -73 -12 0 -21 58 -51 145 -74 66 -18 226 -17 295 1 195 52 353 210 405 405 19 71 19 229 0 300 -26 98 -74 180 -150 255 -75 76 -157 124 -255 150 -68 18 -237 18 -304 0z"/>
 <path d="M363 893 c-8 -21 11 -37 236 -193 99 -69 180 -127 180 -130 0 -3 -80 -60 -177 -128 l-177 -123 -5 193 -5 193 -25 0 -25 0 0 -235 c0 -215 1 -235 17 -238 26 -5 478 315 478 338 0 20 -446 340 -474 340 -9 0 -20 -8 -23 -17z"/>
 </g>

</svg>